<svg id="Purple" xmlns="http://www.w3.org/2000/svg" viewBox="0 0 257.02 296.48"><defs><clipPath id="clippath"><path class="cls-3" d="M.24.24h256.54V296.1H.24z"/></clipPath><clipPath id="clippath-1"><path class="cls-3" d="M.24.24h256.54V296.1H.24z"/></clipPath><clipPath id="clippath-2"><path class="cls-3" d="M.24.24h256.54V296.1H.24z"/></clipPath><clipPath id="clippath-3"><path class="cls-3" d="M.24.24h256.54V296.1H.24z"/></clipPath><clipPath id="clippath-4"><path class="cls-3" d="M.24.24h256.54V296.1H.24z"/></clipPath><clipPath id="clippath-5"><path class="cls-3" d="M.24.24h256.54V296.1H.24z"/></clipPath><clipPath id="clippath-6"><path class="cls-3" d="M.24.24h256.54V296.1H.24z"/></clipPath><clipPath id="clippath-7"><path class="cls-3" d="M.24.24h256.54V296.1H.24z"/></clipPath><style>.cls-3{fill:none;stroke-width:0}.cls-7{fill:#b224ff;stroke:#fff;stroke-linejoin:round;stroke-width:2px}</style></defs><g id="Group_241" data-name="Group 241"><g style="clip-path:url(#clippath)" id="Group_197" data-name="Group 197"><g id="Group_196" data-name="Group 196"><path id="Path_287" data-name="Path 287" class="cls-7" d="M128.52 217.68 1 221.85l61.68-118.2 65.84 114.02Z"/></g></g><path id="Path_289" data-name="Path 289" class="cls-7" d="m256.02 221.85-127.51-4.18 65.83-114.02 61.68 118.19Z"/><g style="clip-path:url(#clippath-1)" id="Group_199" data-name="Group 199"><g id="Group_198" data-name="Group 198"><path id="Path_291" data-name="Path 291" class="cls-7" d="M194.35 103.66H62.68L128.52 1l65.82 102.66Z"/></g></g><path id="Path_293" data-name="Path 293" class="cls-7" d="m194.35 103.66-65.82 114.02-65.85-114.02h131.67Z"/><g style="clip-path:url(#clippath-2)" id="Group_201" data-name="Group 201"><g id="Group_200" data-name="Group 200"><path id="Path_295" data-name="Path 295" class="cls-7" d="M128.52 217.68v77.8L1 221.85l127.52-4.18Z"/></g></g><g style="clip-path:url(#clippath-3)" id="Group_203" data-name="Group 203"><g id="Group_202" data-name="Group 202"><path id="Path_297" data-name="Path 297" class="cls-7" d="m256.02 221.85-127.51 73.62v-77.8l127.51 4.18Z"/></g></g><g style="clip-path:url(#clippath-4)" id="Group_205" data-name="Group 205"><g id="Group_204" data-name="Group 204"><path id="Path_299" data-name="Path 299" class="cls-7" d="m256.02 74.61-61.68 29.05L128.52 1l127.51 73.61Z"/></g></g><g style="clip-path:url(#clippath-5)" id="Group_207" data-name="Group 207"><g id="Group_206" data-name="Group 206"><path id="Path_301" data-name="Path 301" class="cls-7" d="M256.02 74.61v147.24l-61.68-118.19 61.68-29.05Z"/></g></g><g style="clip-path:url(#clippath-6)" id="Group_209" data-name="Group 209"><g id="Group_208" data-name="Group 208"><path id="Path_303" data-name="Path 303" class="cls-7" d="M62.68 103.66 1 221.85V74.62l61.68 29.04Z"/></g></g><g style="clip-path:url(#clippath-7)" id="Group_211" data-name="Group 211"><g id="Group_210" data-name="Group 210"><path id="Path_305" data-name="Path 305" class="cls-7" d="M128.52 1 62.68 103.66 1 74.62 128.52 1Z"/></g></g></g></svg>